<svg width="24" height="24" viewBox="0 0 24 24" fill="none" xmlns="http://www.w3.org/2000/svg">
<g id="bell 1">
<path id="Vector" d="M15.137 3.945C14.493 3.571 14.095 2.875 14.096 2.125V2.122C14.097 0.95 13.158 0 12 0C10.842 0 9.903 0.95 9.903 2.122V2.125C9.904 2.876 9.507 3.571 8.862 3.945C4.195 6.657 6.877 15.66 2 17.251V19H22V17.251C17.123 15.66 19.805 6.657 15.137 3.945ZM12 1C12.552 1 13 1.449 13 2C13 2.552 12.552 3 12 3C11.448 3 11 2.552 11 2C11 1.449 11.448 1 12 1Z" fill="#ff6600"/>
<path id="bell-b" d="M12.029 24C13.608 24 15 22.598 15 21H9C9 22.598 10.45 24 12.029 24Z" fill="black"/>
</g>
</svg>
