<svg width="848" height="580" viewBox="0 0 848 580" fill="none" xmlns="http://www.w3.org/2000/svg">
<g id="undraw_friendship_mni7 1" clip-path="url(#clip0_278_11)">
<g id="rest-tree">
<path id="Vector" opacity="0.1" d="M847.079 243.365C841.92 264.267 815.431 274.745 800.59 290.338C772.623 319.727 783.515 362.646 801.258 397.018C807.197 408.527 813.938 420.712 811.422 433.053C808.355 448.148 792.06 459.182 774.947 465.034C743.766 475.689 706.423 473.149 677.759 458.41C652.992 445.676 635.248 424.996 610.058 412.804C567.897 392.466 514.236 400.181 468.452 414.163C436.068 424.075 400.655 436.973 368.472 426.622C345.828 419.331 330.171 401.584 321.641 382.813C317.528 373.732 314.536 363.901 306.674 356.705C301.996 352.421 295.894 349.384 289.65 346.83C232.574 323.44 160.471 335.966 105.065 310.022C67.6333 292.506 43.661 259.463 33.052 225.002C22.443 190.541 23.6754 154.41 26.3703 118.917C28.2857 93.6705 31.7231 66.776 51.2187 47.3067C71.8428 26.7163 107.233 19.0905 139.231 22.9739C171.229 26.8574 200.22 40.8393 225.736 57.2641C257.66 77.8026 287.193 103.368 326.34 111.684C353 117.35 381.041 114.246 408.539 113.169C454.509 111.38 500.494 115.397 546.204 119.733C568.476 121.864 590.823 124.1 612.902 127.337C617.851 128.06 622.801 128.839 627.75 129.676C630.23 130.099 632.709 130.537 635.174 130.99C637.104 131.339 639.027 131.733 640.95 132.082C643.984 132.671 647.008 133.29 650.022 133.938C658.679 135.794 667.254 137.896 675.739 140.287C705.242 148.611 728.896 163.729 756.758 174.287C774.917 181.171 794.717 183.071 811.912 191.833C833.07 202.593 852.506 221.386 847.079 243.365Z" fill="url(#paint0_linear_278_11)"/>
<path id="Vector_2" d="M660.342 411.861C660.342 411.861 706.742 372.856 683.787 317.314L660.832 308.716L635.924 385.412L660.342 411.861Z" fill="#403F49"/>
<path id="Vector_3" opacity="0.1" d="M662.814 306.072L668.308 308.129L643.853 383.429L665.19 406.537C663.423 408.297 662.324 409.217 662.324 409.217L637.899 382.768L662.814 306.072Z" fill="black"/>
<path id="Vector_4" opacity="0.1" d="M527 551C679.431 551 803 527.271 803 498C803 468.729 679.431 445 527 445C374.569 445 251 468.729 251 498C251 527.271 374.569 551 527 551Z" fill="#D7D7D7"/>
<path id="Vector_5" d="M748.228 403.678C748.228 403.678 733.135 418.774 741.658 441.176C750.18 463.578 727.054 500.824 727.054 500.824L727.797 500.705C758.792 495.232 774.197 459.776 756.959 433.431C750.515 423.652 745.251 412.158 748.228 403.678Z" fill="#FFFF85"/>
<path id="Vector_6" d="M748.228 403.678C748.228 403.678 739.705 422.182 748.228 437.278C756.751 452.373 749.713 494.735 727.047 500.824" stroke="#535461" stroke-miterlimit="10"/>
<path id="Vector_7" d="M775.11 464.737C775.11 464.737 757.887 461.997 756.32 477.434C754.754 492.871 723.194 495.01 723.194 495.01L723.788 495.403C749.839 512.481 774.739 506.296 770.983 483.589C769.594 475.147 769.706 466.667 775.11 464.737Z" fill="#C0E179"/>
<path id="Vector_8" d="M775.11 464.737C775.11 464.737 761.747 467.707 762.838 479.832C763.93 491.958 742.986 506.563 723.201 495.01" stroke="#535461" stroke-miterlimit="10"/>
<path id="Vector_9" d="M450.79 330.62L456.818 354.753C456.818 354.753 499.41 360.307 527.807 356.817C532.827 356.105 537.646 354.366 541.965 351.708C544.363 350.29 548.149 349.674 553.324 353.55C562.188 360.233 605.693 413.695 598.648 469.162C598.101 473.342 596.192 477.224 593.217 480.209C590.241 483.195 586.365 485.116 582.188 485.676C573.513 486.859 565.22 489.997 557.934 494.854L536.404 509.192L757.159 504.366L734.241 476.617C734.241 476.617 718.561 463.348 706.497 462.138C702.978 461.789 700.075 458.559 697.729 454.17C683.987 428.442 667.55 404.25 649.733 381.15C636.755 364.324 625.864 346.592 626.881 335.454C629.294 308.909 626.881 265.478 626.881 265.478L581.045 259.448C581.045 259.448 587.073 317.366 531.586 331.838C476.098 346.31 450.79 330.62 450.79 330.62Z" fill="#4C4B53"/>
<path id="Vector_10" d="M617.401 498.99C617.401 498.99 642.962 493.874 649.785 487.057C656.607 480.241 687.276 468.308 690.684 476.832C694.092 485.357 736.713 514.33 707.759 519.446C678.805 524.562 639.591 526.263 631.069 522.855C622.546 519.446 617.401 498.99 617.401 498.99Z" fill="#A8A8A8"/>
<path id="Vector_11" opacity="0.2" d="M707.73 516.276C678.776 521.392 639.562 523.092 631.039 519.684C624.55 517.085 620.036 504.611 618.255 498.812L617.401 498.99C617.401 498.99 622.516 519.446 631.031 522.855C639.547 526.263 678.753 524.563 707.722 519.447C716.089 517.961 718.48 514.501 717.574 510.12C716.869 512.979 713.951 515.184 707.73 516.276Z" fill="black"/>
<path id="Vector_12" d="M584.828 490.65C591.862 503.046 631.065 521.578 631.065 521.578C631.065 521.578 637.158 481.76 630.129 469.367C626.752 463.415 621.126 458.828 614.49 456.615C607.854 454.402 600.751 454.745 594.744 457.569C588.737 460.392 584.318 465.464 582.459 471.669C580.6 477.875 581.453 484.705 584.83 490.657L584.828 490.65Z" fill="#D5FC82"/>
<path id="Vector_13" d="M594.114 457.576C594.114 457.576 601.669 494.035 630.891 521.899" stroke="#535461" stroke-miterlimit="10"/>
<path id="Vector_14" d="M598.534 512.572C598.534 512.572 604.85 493.003 630.499 522.623C630.499 522.623 618.647 532.172 605.301 526.176C602.702 525.013 600.57 523.014 599.308 520.557C598.047 518.1 597.743 515.355 598.454 512.843L598.534 512.572Z" fill="#F6F681"/>
<path id="Vector_15" d="M598.381 512.621C598.381 512.621 614.498 525.524 630.415 522.778" stroke="#535461" stroke-miterlimit="10"/>
<path id="Vector_16" d="M748.814 499.086C748.814 499.086 761.517 496.561 764.902 493.198C768.288 489.834 783.537 483.946 785.229 488.149C786.922 492.351 808.095 506.653 793.7 509.17C779.305 511.687 759.824 512.533 755.593 510.855C751.361 509.177 748.814 499.086 748.814 499.086Z" fill="#A8A8A8"/>
<path id="Vector_17" opacity="0.2" d="M793.723 507.618C779.327 510.142 759.847 510.981 755.615 509.303C752.393 508.019 750.151 501.878 749.26 499.005L748.837 499.094C748.837 499.094 751.376 509.185 755.615 510.87C759.854 512.556 779.327 511.709 793.723 509.185C797.88 508.442 799.068 506.749 798.622 504.581C798.244 505.984 796.796 507.076 793.723 507.618Z" fill="black"/>
</g>
<g id="leaf">
<path id="Vector_18" d="M697.826 354.745C739.742 354.745 773.722 320.759 773.722 278.836C773.722 236.913 739.742 202.927 697.826 202.927C655.909 202.927 621.93 236.913 621.93 278.836C621.93 320.759 655.909 354.745 697.826 354.745Z" fill="#F6F681"/>
<path id="Vector_19" d="M528.26 334.749C570.176 334.749 604.156 300.763 604.156 258.84C604.156 216.916 570.176 182.93 528.26 182.93C486.344 182.93 452.364 216.916 452.364 258.84C452.364 300.763 486.344 334.749 528.26 334.749Z" fill="#F6F681"/>
<path id="Vector_20" d="M450.508 361.413C492.424 361.413 526.404 327.427 526.404 285.504C526.404 243.581 492.424 209.595 450.508 209.595C408.591 209.595 374.611 243.581 374.611 285.504C374.611 327.427 408.591 361.413 450.508 361.413Z" fill="#F6F681"/>
<path id="Vector_21" d="M430.515 301.424C472.431 301.424 506.411 267.438 506.411 225.515C506.411 183.591 472.431 149.606 430.515 149.606C388.598 149.606 354.618 183.591 354.618 225.515C354.618 267.438 388.598 301.424 430.515 301.424Z" fill="#F6F681"/>
<path id="Vector_22" d="M494.933 231.804C536.85 231.804 570.83 197.818 570.83 155.895C570.83 113.971 536.85 79.9857 494.933 79.9857C453.017 79.9857 419.037 113.971 419.037 155.895C419.037 197.818 453.017 231.804 494.933 231.804Z" fill="#6C63FF"/>
<path id="Vector_23" d="M519.373 200.699C561.29 200.699 595.27 166.714 595.27 124.79C595.27 82.8667 561.29 48.881 519.373 48.881C477.457 48.881 443.477 82.8667 443.477 124.79C443.477 166.714 477.457 200.699 519.373 200.699Z" fill="#6C63FF"/>
<path id="Vector_24" d="M581.572 234.767C623.489 234.767 657.469 200.781 657.469 158.858C657.469 116.934 623.489 82.9484 581.572 82.9484C539.656 82.9484 505.676 116.934 505.676 158.858C505.676 200.781 539.656 234.767 581.572 234.767Z" fill="#6C63FF"/>
<path id="Vector_25" d="M726.705 301.424C768.622 301.424 802.602 267.438 802.602 225.515C802.602 183.591 768.622 149.606 726.705 149.606C684.789 149.606 650.809 183.591 650.809 225.515C650.809 267.438 684.789 301.424 726.705 301.424Z" fill="#F6F681"/>
<path id="Vector_26" d="M683.015 263.651C724.931 263.651 758.911 229.665 758.911 187.742C758.911 145.819 724.931 111.833 683.015 111.833C641.098 111.833 607.119 145.819 607.119 187.742C607.119 229.665 641.098 263.651 683.015 263.651Z" fill="#6C63FF"/>
<path id="Vector_27" d="M654.878 225.879C696.794 225.879 730.774 191.893 730.774 149.969C730.774 108.046 696.794 74.0603 654.878 74.0603C612.961 74.0603 578.981 108.046 578.981 149.969C578.981 191.893 612.961 225.879 654.878 225.879Z" fill="#6C63FF"/>
<path id="Vector_28" d="M601.565 168.852C643.482 168.852 677.462 134.866 677.462 92.9428C677.462 51.0194 643.482 17.0337 601.565 17.0337C559.649 17.0337 525.669 51.0194 525.669 92.9428C525.669 134.866 559.649 168.852 601.565 168.852Z" fill="#6C63FF"/>
<path id="Vector_29" d="M700.788 231.804C742.704 231.804 776.684 197.818 776.684 155.895C776.684 113.971 742.704 79.9857 700.788 79.9857C658.872 79.9857 624.892 113.971 624.892 155.895C624.892 197.818 658.872 231.804 700.788 231.804Z" fill="#6C63FF"/>
<path id="Vector_30" d="M697.826 337.711C739.742 337.711 773.722 303.726 773.722 261.802C773.722 219.879 739.742 185.893 697.826 185.893C655.909 185.893 621.93 219.879 621.93 261.802C621.93 303.726 655.909 337.711 697.826 337.711Z" fill="#FFFF85"/>
<path id="Vector_31" d="M617.111 316.972C659.028 316.972 693.008 282.987 693.008 241.063C693.008 199.14 659.028 165.154 617.111 165.154C575.195 165.154 541.215 199.14 541.215 241.063C541.215 282.987 575.195 316.972 617.111 316.972Z" fill="#FFFF85"/>
<path id="Vector_32" d="M528.26 317.715C570.176 317.715 604.156 283.729 604.156 241.806C604.156 199.882 570.176 165.897 528.26 165.897C486.344 165.897 452.364 199.882 452.364 241.806C452.364 283.729 486.344 317.715 528.26 317.715Z" fill="#FFFF85"/>
<path id="Vector_33" d="M499.38 337.711C541.297 337.711 575.277 303.726 575.277 261.802C575.277 219.879 541.297 185.893 499.38 185.893C457.464 185.893 423.484 219.879 423.484 261.802C423.484 303.726 457.464 337.711 499.38 337.711Z" fill="#FFFF85"/>
<path id="Vector_34" d="M450.508 344.379C492.424 344.379 526.404 310.394 526.404 268.47C526.404 226.547 492.424 192.561 450.508 192.561C408.591 192.561 374.611 226.547 374.611 268.47C374.611 310.394 408.591 344.379 450.508 344.379Z" fill="#FFFF85"/>
<path id="Vector_35" d="M430.515 284.39C472.431 284.39 506.411 250.405 506.411 208.481C506.411 166.558 472.431 132.572 430.515 132.572C388.598 132.572 354.618 166.558 354.618 208.481C354.618 250.405 388.598 284.39 430.515 284.39Z" fill="#FFFF85"/>
<path id="Vector_36" d="M494.933 214.77C536.85 214.77 570.83 180.785 570.83 138.861C570.83 96.9376 536.85 62.9519 494.933 62.9519C453.017 62.9519 419.037 96.9376 419.037 138.861C419.037 180.785 453.017 214.77 494.933 214.77Z" fill="#FDFA79"/>
<path id="Vector_37" d="M519.373 183.666C561.29 183.666 595.27 149.68 595.27 107.756C595.27 65.833 561.29 31.8473 519.373 31.8473C477.457 31.8473 443.477 65.833 443.477 107.756C443.477 149.68 477.457 183.666 519.373 183.666Z" fill="#FFFF85"/>
<path id="Vector_38" d="M581.572 217.733C623.489 217.733 657.469 183.747 657.469 141.824C657.469 99.9004 623.489 65.9147 581.572 65.9147C539.656 65.9147 505.676 99.9004 505.676 141.824C505.676 183.747 539.656 217.733 581.572 217.733Z" fill="#FFFF85"/>
<path id="Vector_39" d="M726.705 284.39C768.622 284.39 802.602 250.405 802.602 208.481C802.602 166.558 768.622 132.572 726.705 132.572C684.789 132.572 650.809 166.558 650.809 208.481C650.809 250.405 684.789 284.39 726.705 284.39Z" fill="#FFFF85"/>
<path id="Vector_40" d="M683.015 246.617C724.931 246.617 758.911 212.632 758.911 170.708C758.911 128.785 724.931 94.7992 683.015 94.7992C641.098 94.7992 607.119 128.785 607.119 170.708C607.119 212.632 641.098 246.617 683.015 246.617Z" fill="#FFFF85"/>
<path id="Vector_41" d="M654.878 208.845C696.794 208.845 730.774 174.859 730.774 132.936C730.774 91.0122 696.794 57.0265 654.878 57.0265C612.961 57.0265 578.981 91.0122 578.981 132.936C578.981 174.859 612.961 208.845 654.878 208.845Z" fill="#FFFF85"/>
<path id="Vector_42" d="M601.565 151.818C643.482 151.818 677.462 117.833 677.462 75.9092C677.462 33.9857 643.482 0 601.565 0C559.649 0 525.669 33.9857 525.669 75.9092C525.669 117.833 559.649 151.818 601.565 151.818Z" fill="#FFFF85"/>
<path id="Vector_43" d="M700.788 214.77C742.704 214.77 776.684 180.785 776.684 138.861C776.684 96.9376 742.704 62.9519 700.788 62.9519C658.872 62.9519 624.892 96.9376 624.892 138.861C624.892 180.785 658.872 214.77 700.788 214.77Z" fill="#FFFF85"/>
<path id="Vector_44" opacity="0.1" d="M773.388 150.749C773.388 150.749 702.703 117.224 659.933 176.641Z" fill="#EAC60D"/>
<path id="Vector_45" opacity="0.1" d="M587.727 82.8296C587.727 82.8296 509.536 80.4683 494.184 152.049Z" fill="black"/>
<path id="lif9" opacity="0.1" d="M490.531 238.138C490.531 238.138 419.846 204.605 377.076 264.008Z" fill="#ACAC68"/>
</g>
<path id="lif8" d="M581.319 364.159C582.746 366.858 583.382 369.906 583.152 372.95C580.401 371.612 578.084 369.522 576.471 366.921C574.125 362.83 573.308 358.894 574.637 358.129C575.966 357.365 578.98 360.067 581.319 364.159Z" fill="#FFFF85"/>
<path id="lif7" d="M619.553 403.539C619.451 406.59 618.488 409.55 616.777 412.078C615.065 409.55 614.103 406.59 614 403.539C614 398.824 615.24 395 616.777 395C618.313 395 619.553 398.824 619.553 403.539Z" fill="#FFFF85"/>
<path id="lif6" d="M599.129 440.204C596.833 442.217 594.015 443.54 591 444.021C591.674 441.044 593.174 438.318 595.328 436.157C598.766 432.935 602.411 431.227 603.458 432.341C604.504 433.454 602.567 436.974 599.129 440.204Z" fill="#C0E179"/>
<path id="lif5" d="M664.749 436.463C666.46 438.991 667.423 441.951 667.526 445.002C664.655 443.965 662.135 442.137 660.257 439.73C657.481 435.913 656.241 432.089 657.481 431.191C658.721 430.292 661.98 432.654 664.749 436.463Z" fill="#C0E179"/>
<path id="lif4" d="M678.553 378.539C678.451 381.59 677.488 384.55 675.777 387.078C674.065 384.55 673.103 381.59 673 378.539C673 373.824 674.24 370 675.777 370C677.313 370 678.553 373.824 678.553 378.539Z" fill="#FFFF85"/>
<path id="lif3" d="M722.553 400.539C722.451 403.59 721.488 406.55 719.777 409.078C718.065 406.55 717.103 403.59 717 400.539C717 395.824 718.24 392 719.777 392C721.313 392 722.553 395.839 722.553 400.539Z" fill="#C0E179"/>
<path id="lif2" d="M691.129 490.226C688.833 492.239 686.015 493.562 683 494.043C683.672 491.058 685.175 488.324 687.336 486.157C690.773 482.935 694.418 481.227 695.465 482.341C696.512 483.454 694.574 486.996 691.129 490.226Z" fill="#C0E179"/>
<path id="lif1" d="M625.553 337.532C625.459 340.583 624.504 343.546 622.799 346.078C621.081 343.555 620.111 340.597 620 337.547C620 332.831 621.218 329.007 622.754 329C624.291 328.993 625.538 332.817 625.553 337.532Z" fill="#FFFF85"/>
</g>
<defs>
<linearGradient id="paint0_linear_278_11" x1="-7.49999" y1="130.5" x2="864" y2="406" gradientUnits="userSpaceOnUse">
<stop stop-color="#FFF500"/>
<stop offset="1" stop-color="#88DA37"/>
</linearGradient>
<clipPath id="clip0_278_11">
<rect width="848" height="580" fill="white"/>
</clipPath>
</defs>
</svg>
