<svg width="654" height="466" viewBox="0 0 654 466" fill="none" xmlns="http://www.w3.org/2000/svg">
<g id="Group 2">
<path id="Vector 5" d="M325.253 1L5 128.227L320.265 312L648 128.227L325.253 1Z" stroke="black"/>
<path id="Vector 6" d="M56 151L325 20L591 156L318 297.5L56 151Z" fill="#F3F3F3"/>
<g id="reveal">
<path id="Vector 4" d="M444 32H188C182.477 32 178 36.4772 178 42V277.104C178 280.742 179.976 284.093 183.159 285.854L319 361L448.655 292.811C451.942 291.082 454 287.674 454 283.961V42C454 36.4772 449.523 32 444 32Z" fill="white" stroke="black"/>
<path id="Vector" d="M310.066 218C306.018 218.008 302.078 216.697 298.839 214.266L298.638 214.115L256.359 181.703C254.401 180.201 252.758 178.327 251.523 176.189C250.288 174.051 249.486 171.691 249.162 169.242C248.839 166.794 249 164.305 249.637 161.919C250.273 159.533 251.373 157.296 252.873 155.335C254.374 153.375 256.245 151.729 258.38 150.493C260.516 149.256 262.873 148.453 265.319 148.129C267.764 147.805 270.249 147.966 272.632 148.604C275.015 149.241 277.25 150.343 279.208 151.845L306.593 172.87L371.309 88.3636C372.809 86.4036 374.681 84.7588 376.817 83.5231C378.953 82.2874 381.311 81.485 383.756 81.1617C386.202 80.8385 388.687 81.0008 391.07 81.6392C393.453 82.2777 395.686 83.3798 397.644 84.8828L397.242 85.4298L397.654 84.8907C401.603 87.9293 404.186 92.4121 404.838 97.3556C405.49 102.299 404.157 107.3 401.131 111.26L325.01 210.66C323.249 212.951 320.985 214.804 318.394 216.077C315.802 217.35 312.952 218.008 310.066 218V218Z" fill="#FF6600"/>
</g>
<path id="Rectangle 1" d="M653.5 130.247V461C653.5 463.485 651.485 465.5 649 465.5H4.99999C2.51471 465.5 0.5 463.485 0.5 461V130.452C0.5 127.03 4.16797 124.861 7.16697 126.508L315.913 296.149C317.525 297.035 319.474 297.056 321.105 296.205L646.919 126.258C649.915 124.695 653.5 126.868 653.5 130.247Z" fill="white" stroke="black"/>
<path id="Vector 7" d="M211.5 345L55 154L318.5 297.5L587 158.5L367 317L211.5 345Z" fill="#F3F3F3"/>
<rect id="Rectangle 2" x="50" y="361" width="95" height="19" rx="9.5" fill="#FF6600"/>
<rect id="Rectangle 3" x="50" y="399" width="165" height="19" rx="9.5" fill="#FF6600"/>
</g>
</svg>
