<svg width="24" height="24" viewBox="0 0 24 24" fill="none" xmlns="http://www.w3.org/2000/svg">
<g id="iconmonstr-location-16 1">
<g id="right-line">
<path d="M20.979 4.751C22.142 5.669 22.881 7.007 22.881 8.499C22.881 9.991 22.142 11.33 20.979 12.247L21.72 13C23.115 11.899 24 10.293 24 8.499C24 6.705 23.115 5.1 21.72 3.999L20.979 4.751Z" fill="#f77d2c"/>
<path d="M20.24 11.499L19.5 10.748C20.197 10.198 20.641 9.394 20.641 8.499C20.641 7.604 20.197 6.801 19.5 6.25L20.24 5.499C21.171 6.232 21.761 7.304 21.761 8.499C21.761 9.695 21.171 10.766 20.24 11.499Z" fill="#f77d2c"/>
</g>
<g id="left-line">
<path d="M2.28 13L3.021 12.247C1.858 11.33 1.119 9.991 1.119 8.499C1.119 7.007 1.858 5.669 3.021 4.751L2.28 3.999C0.885 5.1 0 6.705 0 8.499C0 10.293 0.885 11.899 2.28 13Z" fill="#f77d2c"/>
<path d="M4.5 6.25C3.802 6.801 3.359 7.603 3.359 8.499C3.359 9.395 3.803 10.198 4.5 10.748L3.76 11.499C2.829 10.766 2.239 9.695 2.239 8.499C2.239 7.304 2.829 6.232 3.76 5.499L4.5 6.25Z" fill="#f77d2c"/>
</g>
<path id="main" d="M6 8.702C6 5.553 8.852 3 12 3C15.149 3 18 5.553 18 8.702C18 11.85 15.398 15.609 12 21C8.602 15.609 6 11.85 6 8.702Z" fill="#F3F3F3"/>
</g>
</svg>
