<svg width="24" height="24" viewBox="0 0 24 24" fill="none" xmlns="http://www.w3.org/2000/svg">
<g id="iconmonstr-phone-10 1" clip-path="url(#clip0_7_8)">
<path id="Vector" fill-rule="evenodd" clip-rule="evenodd" d="M16 22.621L12.479 15.826C12.472 15.83 10.505 16.796 10.415 16.837C8.17498 17.923 3.61598 9.017 5.80598 7.843L7.88798 6.817L4.39598 0L2.28998 1.039C0.650984 1.894 -0.0230162 3.705 0.000983772 5.955C0.0759838 12.903 6.80998 24.026 12.31 24C12.851 23.997 13.38 23.887 13.89 23.654C14.011 23.599 15.992 22.625 16 22.621Z" fill="black"/>
<path id="phone" fill-rule="evenodd" clip-rule="evenodd" d="M16 22.621L12.479 15.826C12.472 15.83 10.505 16.796 10.415 16.837C8.17498 17.923 3.61598 9.017 5.80598 7.843L7.88798 6.817L4.39598 0L2.28998 1.039C0.650984 1.894 -0.0230162 3.705 0.000983772 5.955C0.0759838 12.903 6.80998 24.026 12.31 24C12.851 23.997 13.38 23.887 13.89 23.654C14.011 23.599 15.992 22.625 16 22.621Z" fill="#EFEFEF"/>
<g id="dots">
<path d="M14 10.5C14 9.672 13.328 9 12.5 9C11.672 9 11 9.672 11 10.5C11 11.328 11.672 12 12.5 12C13.328 12 14 11.328 14 10.5Z" fill="##f77d2c"/>
<path d="M23 10.5C23 9.672 22.328 9 21.5 9C20.672 9 20 9.672 20 10.5C20 11.328 20.672 12 21.5 12C22.328 12 23 11.328 23 10.5Z" fill="##f77d2c"/>
<path d="M18.5 10.5C18.5 9.672 17.828 9 17 9C16.172 9 15.5 9.672 15.5 10.5C15.5 11.328 16.172 12 17 12C17.828 12 18.5 11.328 18.5 10.5Z" fill="#f77d2c"/>
</g>
</g>
<defs>
<clipPath id="clip0_7_8">
<rect width="24" height="24" fill="white"/>
</clipPath>
</defs>
</svg>
