<svg width="24" height="24" viewBox="0 0 24 24" fill="none" xmlns="http://www.w3.org/2000/svg">
<g id="iconmonstr-paper-plane-7 1">
<path id="Vector" d="M23 0L18.5 16.5L12.403 11.07L18.255 4.895L10.411 10.316L5 9L23 0ZM12 12.501V18L14.193 14.677L12 12.501Z" fill="black"/>
<path id="plane" d="M23 0L18.5 16.5L12.403 11.07L18.255 4.895L10.411 10.316L5 9L23 0ZM12 12.501V18L14.193 14.677L12 12.501Z" fill="#F5F5F5"/>
<g id="force">
<path d="M1.863 18.215L3.302 18.722L9 13.396L7.564 13L1.863 18.215Z" fill="#f77d2c"/>
<path d="M5.241 22.444L6.564 23.009L11 18.396L9.68 17.941L5.241 22.444Z" fill="#f77d2c"/>
<path d="M1 22.889L2.481 23.396L10.437 15.396L9 14.999L1 22.889Z" fill="#f77d2c"/>
</g>
</g>
</svg>
